<svg xmlns="http://www.w3.org/2000/svg" viewBox="0 0 1024 1024">
<path d="M 674,287 L 673,288 L 671,288 L 670,289 L 666,289 L 665,290 L 662,290 L 661,291 L 659,291 L 658,292 L 655,292 L 654,293 L 652,293 L 651,294 L 649,294 L 648,295 L 647,295 L 646,296 L 644,296 L 643,297 L 642,297 L 641,298 L 639,298 L 638,299 L 637,299 L 636,300 L 635,300 L 634,301 L 633,301 L 632,302 L 631,302 L 629,304 L 628,304 L 627,305 L 626,305 L 624,307 L 623,307 L 610,320 L 610,321 L 608,323 L 608,324 L 606,326 L 606,327 L 605,328 L 605,329 L 604,330 L 604,331 L 602,333 L 602,335 L 601,336 L 601,337 L 600,338 L 600,340 L 599,341 L 599,343 L 598,344 L 598,349 L 597,350 L 597,358 L 596,359 L 596,368 L 597,369 L 597,377 L 598,378 L 598,381 L 599,382 L 599,385 L 597,387 L 597,388 L 594,391 L 594,392 L 590,396 L 590,397 L 588,399 L 588,400 L 586,402 L 586,403 L 584,405 L 584,406 L 581,409 L 581,410 L 580,411 L 580,412 L 578,414 L 578,415 L 575,418 L 575,419 L 573,421 L 573,422 L 570,425 L 570,426 L 568,428 L 568,429 L 565,432 L 565,433 L 563,435 L 563,436 L 562,437 L 562,439 L 569,439 L 570,440 L 590,440 L 591,439 L 592,440 L 592,446 L 591,447 L 591,458 L 590,459 L 590,475 L 594,475 L 595,476 L 595,482 L 594,483 L 594,503 L 595,504 L 595,505 L 596,506 L 596,507 L 598,509 L 598,510 L 603,515 L 604,515 L 605,516 L 606,516 L 607,517 L 611,517 L 612,518 L 621,518 L 622,517 L 642,517 L 643,518 L 645,518 L 646,519 L 647,519 L 648,520 L 649,520 L 652,523 L 653,523 L 667,537 L 667,538 L 669,540 L 669,541 L 671,543 L 671,544 L 673,546 L 673,547 L 674,548 L 674,549 L 676,551 L 678,549 L 678,548 L 682,544 L 682,543 L 685,540 L 685,539 L 688,536 L 688,535 L 690,533 L 690,532 L 693,529 L 693,528 L 695,526 L 695,525 L 696,524 L 696,523 L 698,521 L 698,520 L 700,518 L 700,517 L 702,515 L 702,514 L 703,513 L 703,512 L 704,511 L 704,510 L 705,509 L 705,508 L 706,507 L 706,506 L 708,504 L 708,503 L 709,502 L 709,501 L 710,500 L 710,499 L 711,498 L 711,497 L 712,496 L 712,495 L 713,494 L 713,492 L 714,491 L 714,490 L 715,489 L 715,487 L 716,486 L 716,485 L 717,484 L 717,482 L 718,481 L 718,479 L 719,478 L 719,476 L 720,475 L 720,473 L 721,472 L 721,470 L 722,469 L 722,466 L 723,465 L 723,462 L 724,461 L 724,458 L 725,457 L 725,453 L 726,452 L 726,448 L 727,447 L 727,440 L 728,439 L 728,428 L 729,427 L 729,408 L 728,407 L 728,395 L 727,394 L 727,387 L 726,386 L 726,382 L 725,381 L 725,377 L 724,376 L 724,373 L 723,372 L 723,369 L 722,368 L 722,365 L 721,364 L 721,362 L 720,361 L 720,359 L 719,358 L 719,357 L 718,356 L 718,354 L 717,353 L 717,351 L 716,350 L 716,348 L 715,347 L 715,346 L 714,345 L 714,344 L 713,343 L 713,342 L 712,341 L 712,339 L 711,338 L 711,337 L 710,336 L 710,335 L 709,334 L 709,333 L 708,332 L 708,331 L 707,330 L 707,329 L 706,328 L 706,327 L 705,326 L 705,325 L 703,323 L 703,322 L 702,321 L 702,320 L 700,318 L 700,317 L 699,316 L 699,315 L 697,313 L 697,312 L 695,310 L 695,309 L 692,306 L 692,305 L 690,303 L 690,302 L 686,298 L 686,297 L 683,294 L 683,293 L 677,287 Z" fill="black"/>
<path d="M 363,287 L 362,288 L 362,289 L 358,293 L 358,294 L 353,299 L 353,300 L 350,303 L 350,304 L 347,307 L 347,308 L 345,310 L 345,311 L 343,313 L 343,314 L 342,315 L 342,316 L 340,318 L 340,319 L 339,320 L 339,321 L 337,323 L 337,324 L 336,325 L 336,326 L 335,327 L 335,328 L 334,329 L 334,330 L 332,332 L 332,333 L 331,334 L 331,335 L 330,336 L 330,337 L 329,338 L 329,339 L 328,340 L 328,342 L 327,343 L 327,344 L 326,345 L 326,347 L 325,348 L 325,349 L 324,350 L 324,352 L 323,353 L 323,354 L 322,355 L 322,357 L 321,358 L 321,360 L 320,361 L 320,363 L 319,364 L 319,366 L 318,367 L 318,371 L 317,372 L 317,374 L 316,375 L 316,379 L 315,380 L 315,383 L 314,384 L 314,389 L 313,390 L 313,396 L 312,397 L 312,407 L 311,408 L 311,426 L 312,427 L 312,439 L 313,440 L 313,445 L 314,446 L 314,451 L 315,452 L 315,456 L 316,457 L 316,460 L 317,461 L 317,464 L 318,465 L 318,468 L 319,469 L 319,470 L 320,471 L 320,473 L 321,474 L 321,476 L 322,477 L 322,479 L 323,480 L 323,482 L 324,483 L 324,485 L 325,486 L 325,487 L 326,488 L 326,490 L 327,491 L 327,492 L 328,493 L 328,494 L 329,495 L 329,496 L 330,497 L 330,498 L 331,499 L 331,500 L 332,501 L 332,502 L 333,503 L 333,504 L 334,505 L 334,506 L 335,507 L 335,508 L 336,509 L 336,510 L 338,512 L 338,513 L 339,514 L 339,515 L 340,516 L 340,517 L 342,519 L 342,520 L 345,523 L 345,524 L 347,526 L 347,527 L 349,529 L 349,530 L 351,532 L 351,533 L 354,536 L 354,537 L 358,541 L 358,542 L 364,548 L 364,549 L 365,549 L 366,548 L 366,547 L 368,545 L 368,544 L 370,542 L 370,541 L 372,539 L 372,538 L 375,535 L 375,534 L 390,519 L 391,519 L 392,518 L 393,518 L 394,517 L 424,517 L 425,516 L 428,516 L 429,515 L 430,515 L 431,514 L 432,514 L 437,509 L 437,508 L 438,507 L 438,506 L 439,505 L 439,492 L 438,491 L 438,486 L 437,485 L 437,481 L 436,480 L 436,477 L 437,476 L 442,476 L 443,475 L 443,462 L 442,461 L 442,440 L 443,439 L 459,439 L 460,438 L 468,438 L 469,437 L 472,437 L 472,435 L 471,434 L 471,433 L 468,430 L 468,429 L 466,427 L 466,426 L 464,424 L 464,423 L 461,420 L 461,419 L 460,418 L 460,417 L 458,415 L 458,414 L 456,412 L 456,411 L 455,410 L 455,409 L 453,407 L 453,406 L 451,404 L 451,403 L 448,400 L 448,399 L 446,397 L 446,396 L 444,394 L 444,393 L 442,391 L 442,390 L 441,389 L 441,388 L 440,387 L 440,386 L 439,385 L 439,382 L 438,381 L 438,354 L 437,353 L 437,349 L 436,348 L 436,345 L 435,344 L 435,342 L 434,341 L 434,339 L 433,338 L 433,337 L 432,336 L 432,335 L 431,334 L 431,333 L 430,332 L 430,331 L 429,330 L 429,329 L 427,327 L 427,326 L 425,324 L 425,323 L 420,318 L 420,317 L 412,309 L 411,309 L 407,305 L 406,305 L 404,303 L 403,303 L 401,301 L 400,301 L 399,300 L 398,300 L 396,298 L 395,298 L 394,297 L 393,297 L 392,296 L 390,296 L 389,295 L 388,295 L 387,294 L 386,294 L 385,293 L 383,293 L 382,292 L 380,292 L 379,291 L 377,291 L 376,290 L 373,290 L 372,289 L 370,289 L 369,288 L 365,288 L 364,287 Z" fill="black"/>
<path d="M 500,220 L 499,221 L 489,221 L 488,222 L 482,222 L 481,223 L 476,223 L 475,224 L 471,224 L 470,225 L 467,225 L 466,226 L 463,226 L 462,227 L 459,227 L 458,228 L 456,228 L 455,229 L 453,229 L 452,230 L 450,230 L 449,231 L 448,231 L 447,232 L 445,232 L 444,233 L 443,233 L 442,234 L 440,234 L 439,235 L 438,235 L 437,236 L 435,236 L 434,237 L 433,237 L 432,238 L 430,238 L 429,239 L 428,239 L 427,240 L 426,240 L 425,241 L 424,241 L 423,242 L 422,242 L 421,243 L 420,243 L 419,244 L 418,244 L 417,245 L 416,245 L 415,246 L 414,246 L 413,247 L 412,247 L 411,248 L 410,248 L 408,250 L 407,250 L 405,252 L 404,252 L 402,254 L 401,254 L 399,256 L 398,256 L 396,258 L 395,258 L 393,260 L 392,260 L 390,262 L 389,262 L 382,269 L 381,269 L 380,270 L 380,271 L 379,272 L 380,273 L 383,273 L 384,274 L 386,274 L 387,275 L 389,275 L 390,276 L 392,276 L 393,277 L 395,277 L 396,278 L 397,278 L 398,279 L 399,279 L 400,280 L 401,280 L 402,281 L 403,281 L 404,282 L 405,282 L 406,283 L 407,283 L 409,285 L 410,285 L 412,287 L 413,287 L 415,289 L 416,289 L 419,292 L 420,292 L 427,299 L 428,299 L 429,300 L 429,301 L 437,309 L 437,310 L 440,313 L 440,314 L 442,316 L 442,317 L 443,318 L 443,319 L 445,321 L 445,322 L 447,324 L 447,325 L 448,326 L 448,327 L 449,328 L 449,329 L 450,330 L 450,332 L 451,333 L 451,334 L 452,335 L 452,337 L 453,338 L 453,340 L 454,341 L 454,344 L 455,345 L 455,349 L 456,350 L 456,358 L 457,359 L 457,380 L 456,381 L 456,382 L 458,384 L 458,385 L 462,389 L 462,390 L 466,394 L 466,395 L 468,397 L 468,398 L 471,401 L 471,402 L 472,403 L 472,404 L 474,406 L 474,407 L 476,409 L 476,410 L 478,412 L 478,413 L 481,416 L 481,417 L 483,419 L 483,420 L 485,422 L 485,423 L 487,425 L 487,426 L 489,428 L 489,429 L 491,431 L 491,432 L 494,435 L 494,436 L 493,437 L 493,439 L 492,440 L 492,441 L 491,442 L 491,443 L 490,444 L 490,446 L 488,448 L 488,449 L 484,453 L 482,453 L 481,454 L 476,454 L 475,455 L 461,455 L 461,473 L 460,474 L 460,479 L 459,480 L 459,481 L 455,485 L 455,486 L 456,487 L 456,493 L 457,494 L 457,504 L 456,505 L 456,509 L 455,510 L 455,512 L 454,513 L 454,515 L 453,516 L 453,517 L 452,518 L 452,519 L 450,521 L 450,522 L 445,527 L 444,527 L 442,529 L 441,529 L 440,530 L 439,530 L 438,531 L 437,531 L 436,532 L 434,532 L 433,533 L 431,533 L 430,534 L 426,534 L 425,535 L 415,535 L 414,536 L 405,536 L 404,535 L 400,535 L 397,538 L 397,539 L 391,545 L 391,546 L 387,550 L 387,551 L 385,553 L 385,554 L 383,556 L 383,557 L 381,559 L 381,560 L 379,562 L 379,563 L 378,564 L 379,565 L 380,565 L 381,566 L 382,566 L 385,569 L 386,569 L 389,572 L 390,572 L 393,575 L 394,575 L 397,578 L 398,578 L 401,581 L 402,581 L 404,583 L 405,583 L 407,585 L 408,585 L 409,586 L 410,586 L 411,587 L 412,587 L 414,589 L 415,589 L 416,590 L 417,590 L 418,591 L 419,591 L 420,592 L 421,592 L 422,593 L 423,593 L 424,594 L 425,594 L 426,595 L 427,595 L 428,596 L 429,596 L 430,597 L 431,597 L 432,598 L 433,598 L 434,599 L 435,599 L 436,600 L 437,600 L 438,601 L 440,601 L 441,602 L 442,602 L 443,603 L 445,603 L 446,604 L 447,604 L 448,605 L 450,605 L 451,606 L 453,606 L 454,607 L 456,607 L 457,608 L 459,608 L 460,609 L 463,609 L 464,610 L 467,610 L 468,611 L 472,611 L 473,612 L 477,612 L 478,613 L 482,613 L 483,614 L 489,614 L 490,615 L 502,615 L 503,616 L 510,616 L 510,220 Z" fill="black"/>
<path d="M 539,166 L 538,167 L 537,167 L 535,169 L 535,199 L 543,199 L 544,200 L 557,200 L 558,201 L 564,201 L 565,202 L 569,202 L 570,203 L 574,203 L 575,204 L 577,204 L 578,205 L 581,205 L 582,206 L 584,206 L 585,207 L 588,207 L 589,208 L 591,208 L 592,209 L 595,209 L 596,210 L 597,210 L 598,211 L 600,211 L 601,212 L 603,212 L 604,213 L 606,213 L 607,214 L 608,214 L 609,215 L 611,215 L 612,216 L 613,216 L 614,217 L 615,217 L 616,218 L 617,218 L 618,219 L 620,219 L 621,220 L 622,220 L 623,221 L 624,221 L 626,223 L 627,223 L 628,224 L 629,224 L 630,225 L 631,225 L 632,226 L 633,226 L 634,227 L 635,227 L 636,228 L 637,228 L 638,229 L 639,229 L 641,231 L 642,231 L 643,232 L 644,232 L 646,234 L 647,234 L 649,236 L 650,236 L 653,239 L 654,239 L 656,241 L 657,241 L 661,245 L 662,245 L 666,249 L 667,249 L 674,256 L 675,256 L 693,274 L 693,275 L 699,281 L 699,282 L 703,286 L 703,287 L 706,290 L 706,291 L 709,294 L 709,295 L 711,297 L 711,298 L 713,300 L 713,301 L 715,303 L 715,304 L 717,306 L 717,307 L 718,308 L 718,309 L 720,311 L 720,312 L 721,313 L 721,314 L 722,315 L 722,316 L 724,318 L 724,319 L 725,320 L 725,321 L 726,322 L 726,323 L 727,324 L 727,325 L 728,326 L 728,327 L 729,328 L 729,329 L 730,330 L 730,331 L 731,332 L 731,333 L 732,334 L 732,335 L 733,336 L 733,337 L 734,338 L 734,340 L 735,341 L 735,343 L 736,344 L 736,345 L 737,346 L 737,348 L 738,349 L 738,351 L 739,352 L 739,354 L 740,355 L 740,357 L 741,358 L 741,361 L 742,362 L 742,364 L 743,365 L 743,368 L 744,369 L 744,372 L 745,373 L 745,376 L 746,377 L 746,383 L 747,384 L 747,391 L 748,392 L 748,404 L 749,405 L 749,427 L 748,428 L 748,443 L 747,444 L 747,451 L 746,452 L 746,456 L 745,457 L 745,461 L 744,462 L 744,466 L 743,467 L 743,469 L 742,470 L 742,473 L 741,474 L 741,476 L 740,477 L 740,479 L 739,480 L 739,482 L 738,483 L 738,485 L 737,486 L 737,487 L 736,488 L 736,490 L 735,491 L 735,493 L 734,494 L 734,496 L 733,497 L 733,498 L 732,499 L 732,500 L 731,501 L 731,502 L 730,503 L 730,505 L 729,506 L 729,507 L 728,508 L 728,509 L 726,511 L 726,513 L 724,515 L 724,516 L 723,517 L 723,518 L 722,519 L 722,520 L 720,522 L 720,523 L 719,524 L 719,525 L 717,527 L 717,528 L 716,529 L 716,530 L 714,532 L 714,533 L 712,535 L 712,536 L 710,538 L 710,539 L 708,541 L 708,542 L 704,546 L 704,547 L 701,550 L 701,551 L 696,556 L 696,557 L 674,579 L 673,579 L 667,585 L 666,585 L 663,588 L 662,588 L 659,591 L 658,591 L 655,594 L 654,594 L 652,596 L 651,596 L 649,598 L 648,598 L 646,600 L 645,600 L 643,602 L 642,602 L 640,604 L 639,604 L 637,606 L 636,606 L 635,607 L 634,607 L 633,608 L 632,608 L 630,610 L 629,610 L 628,611 L 626,611 L 625,612 L 624,612 L 622,614 L 621,614 L 620,615 L 619,615 L 618,616 L 616,616 L 615,617 L 614,617 L 613,618 L 611,618 L 610,619 L 609,619 L 608,620 L 606,620 L 605,621 L 603,621 L 602,622 L 600,622 L 599,623 L 598,623 L 597,624 L 595,624 L 594,625 L 592,625 L 591,626 L 589,626 L 588,627 L 586,627 L 585,628 L 582,628 L 581,629 L 578,629 L 577,630 L 574,630 L 573,631 L 569,631 L 568,632 L 565,632 L 564,633 L 560,633 L 559,634 L 555,634 L 554,635 L 548,635 L 547,636 L 538,636 L 537,637 L 536,637 L 535,636 L 534,636 L 534,641 L 535,642 L 535,781 L 536,781 L 538,779 L 538,778 L 540,776 L 540,775 L 543,772 L 543,771 L 546,768 L 546,767 L 548,765 L 548,764 L 550,762 L 550,761 L 552,759 L 552,758 L 554,756 L 554,755 L 556,753 L 556,752 L 557,751 L 557,750 L 559,748 L 559,747 L 561,745 L 561,744 L 563,742 L 563,741 L 565,739 L 565,738 L 568,735 L 568,734 L 570,732 L 570,731 L 572,729 L 572,728 L 573,727 L 573,726 L 575,724 L 575,723 L 577,721 L 577,720 L 578,719 L 578,718 L 580,716 L 580,715 L 582,713 L 582,712 L 584,710 L 584,709 L 586,707 L 586,706 L 588,704 L 588,703 L 589,702 L 589,701 L 591,699 L 591,698 L 593,696 L 593,695 L 595,693 L 595,692 L 597,690 L 597,689 L 600,686 L 600,685 L 602,683 L 602,682 L 604,680 L 604,679 L 607,676 L 607,675 L 609,673 L 609,672 L 613,668 L 613,667 L 616,664 L 616,663 L 619,660 L 619,659 L 623,655 L 623,654 L 627,650 L 627,649 L 628,648 L 629,648 L 630,647 L 631,647 L 632,646 L 633,646 L 634,645 L 635,645 L 636,644 L 638,644 L 639,643 L 640,643 L 641,642 L 643,642 L 644,641 L 645,641 L 646,640 L 647,640 L 648,639 L 649,639 L 650,638 L 651,638 L 652,637 L 653,637 L 654,636 L 655,636 L 656,635 L 657,635 L 659,633 L 660,633 L 661,632 L 662,632 L 663,631 L 664,631 L 666,629 L 667,629 L 669,627 L 670,627 L 672,625 L 673,625 L 675,623 L 676,623 L 679,620 L 680,620 L 682,618 L 683,618 L 686,615 L 687,615 L 692,610 L 693,610 L 701,602 L 702,602 L 720,584 L 720,583 L 727,576 L 727,575 L 731,571 L 731,570 L 734,567 L 734,566 L 737,563 L 737,562 L 739,560 L 739,559 L 742,556 L 742,555 L 744,553 L 744,552 L 746,550 L 746,549 L 748,547 L 748,546 L 749,545 L 749,544 L 750,543 L 750,542 L 752,540 L 752,539 L 753,538 L 753,537 L 754,536 L 754,535 L 756,533 L 756,532 L 757,531 L 757,529 L 758,528 L 758,527 L 759,526 L 759,525 L 760,524 L 760,523 L 761,522 L 761,521 L 762,520 L 762,519 L 763,518 L 763,517 L 764,516 L 764,515 L 765,514 L 765,512 L 766,511 L 766,510 L 767,509 L 767,507 L 768,506 L 768,505 L 769,504 L 769,502 L 770,501 L 770,500 L 771,499 L 771,497 L 772,496 L 772,494 L 773,493 L 773,491 L 774,490 L 774,488 L 775,487 L 775,484 L 776,483 L 776,480 L 777,479 L 777,476 L 778,475 L 778,472 L 779,471 L 779,467 L 780,466 L 780,460 L 781,459 L 781,452 L 782,451 L 782,442 L 783,441 L 783,428 L 784,427 L 784,408 L 783,407 L 783,391 L 782,390 L 782,382 L 781,381 L 781,377 L 780,376 L 780,371 L 779,370 L 779,366 L 778,365 L 778,361 L 777,360 L 777,358 L 776,357 L 776,354 L 775,353 L 775,351 L 774,350 L 774,347 L 773,346 L 773,345 L 772,344 L 772,342 L 771,341 L 771,339 L 770,338 L 770,336 L 769,335 L 769,333 L 768,332 L 768,331 L 767,330 L 767,328 L 766,327 L 766,325 L 765,324 L 765,323 L 764,322 L 764,320 L 763,319 L 763,318 L 762,317 L 762,316 L 761,315 L 761,314 L 760,313 L 760,312 L 759,311 L 759,309 L 758,308 L 758,307 L 757,306 L 757,305 L 755,303 L 755,302 L 754,301 L 754,300 L 753,299 L 753,298 L 752,297 L 752,296 L 750,294 L 750,293 L 749,292 L 749,291 L 748,290 L 748,289 L 746,287 L 746,286 L 745,285 L 745,284 L 743,282 L 743,281 L 742,280 L 742,279 L 739,276 L 739,275 L 736,272 L 736,271 L 734,269 L 734,268 L 731,265 L 731,264 L 728,261 L 728,260 L 724,256 L 724,255 L 717,248 L 717,247 L 703,233 L 702,233 L 695,226 L 694,226 L 691,223 L 690,223 L 686,219 L 685,219 L 682,216 L 681,216 L 679,214 L 678,214 L 675,211 L 674,211 L 672,209 L 671,209 L 669,207 L 668,207 L 666,205 L 665,205 L 663,203 L 662,203 L 661,202 L 660,202 L 658,200 L 657,200 L 656,199 L 655,199 L 654,198 L 653,198 L 651,196 L 650,196 L 649,195 L 648,195 L 647,194 L 646,194 L 645,193 L 644,193 L 643,192 L 642,192 L 641,191 L 640,191 L 639,190 L 638,190 L 637,189 L 636,189 L 635,188 L 633,188 L 632,187 L 631,187 L 630,186 L 628,186 L 627,185 L 626,185 L 625,184 L 624,184 L 623,183 L 621,183 L 620,182 L 618,182 L 617,181 L 616,181 L 615,180 L 613,180 L 612,179 L 610,179 L 609,178 L 607,178 L 606,177 L 604,177 L 603,176 L 600,176 L 599,175 L 597,175 L 596,174 L 593,174 L 592,173 L 590,173 L 589,172 L 586,172 L 585,171 L 582,171 L 581,170 L 577,170 L 576,169 L 572,169 L 571,168 L 566,168 L 565,167 L 557,167 L 556,166 Z" fill="black"/>
<path d="M 499,165 L 498,166 L 488,166 L 487,167 L 480,167 L 479,168 L 473,168 L 472,169 L 468,169 L 467,170 L 463,170 L 462,171 L 459,171 L 458,172 L 454,172 L 453,173 L 451,173 L 450,174 L 447,174 L 446,175 L 444,175 L 443,176 L 441,176 L 440,177 L 438,177 L 437,178 L 435,178 L 434,179 L 432,179 L 431,180 L 429,180 L 428,181 L 426,181 L 425,182 L 423,182 L 422,183 L 420,183 L 419,184 L 418,184 L 417,185 L 416,185 L 415,186 L 413,186 L 412,187 L 411,187 L 410,188 L 408,188 L 407,189 L 406,189 L 405,190 L 404,190 L 403,191 L 402,191 L 401,192 L 400,192 L 399,193 L 398,193 L 397,194 L 396,194 L 395,195 L 394,195 L 393,196 L 392,196 L 391,197 L 390,197 L 389,198 L 388,198 L 386,200 L 385,200 L 384,201 L 383,201 L 381,203 L 380,203 L 379,204 L 378,204 L 376,206 L 375,206 L 373,208 L 372,208 L 370,210 L 369,210 L 366,213 L 365,213 L 363,215 L 362,215 L 359,218 L 358,218 L 355,221 L 354,221 L 349,226 L 348,226 L 342,232 L 341,232 L 323,250 L 323,251 L 317,257 L 317,258 L 314,261 L 314,262 L 311,265 L 311,266 L 308,269 L 308,270 L 305,273 L 305,274 L 303,276 L 303,277 L 300,280 L 300,281 L 299,282 L 299,283 L 297,285 L 297,286 L 295,288 L 295,289 L 294,290 L 294,291 L 292,293 L 292,294 L 291,295 L 291,296 L 290,297 L 290,298 L 289,299 L 289,300 L 288,301 L 288,302 L 286,304 L 286,306 L 284,308 L 284,310 L 283,311 L 283,312 L 282,313 L 282,314 L 281,315 L 281,316 L 280,317 L 280,318 L 279,319 L 279,320 L 278,321 L 278,323 L 277,324 L 277,325 L 276,326 L 276,328 L 275,329 L 275,331 L 274,332 L 274,334 L 273,335 L 273,336 L 272,337 L 272,339 L 271,340 L 271,342 L 270,343 L 270,345 L 269,346 L 269,348 L 268,349 L 268,351 L 267,352 L 267,355 L 266,356 L 266,359 L 265,360 L 265,363 L 264,364 L 264,367 L 263,368 L 263,372 L 262,373 L 262,378 L 261,379 L 261,385 L 260,386 L 260,393 L 259,394 L 259,406 L 258,407 L 258,428 L 259,429 L 259,443 L 260,444 L 260,451 L 261,452 L 261,459 L 262,460 L 262,465 L 263,466 L 263,470 L 264,471 L 264,475 L 265,476 L 265,479 L 266,480 L 266,482 L 267,483 L 267,486 L 268,487 L 268,489 L 269,490 L 269,492 L 270,493 L 270,495 L 271,496 L 271,497 L 272,498 L 272,500 L 273,501 L 273,503 L 274,504 L 274,505 L 275,506 L 275,508 L 276,509 L 276,511 L 277,512 L 277,513 L 278,514 L 278,515 L 279,516 L 279,518 L 280,519 L 280,520 L 281,521 L 281,522 L 282,523 L 282,524 L 283,525 L 283,526 L 284,527 L 284,528 L 285,529 L 285,530 L 286,531 L 286,532 L 287,533 L 287,534 L 289,536 L 289,537 L 290,538 L 290,539 L 291,540 L 291,541 L 293,543 L 293,544 L 294,545 L 294,546 L 296,548 L 296,549 L 298,551 L 298,552 L 300,554 L 300,555 L 302,557 L 302,558 L 304,560 L 304,561 L 307,564 L 307,565 L 312,570 L 312,571 L 315,574 L 315,575 L 321,581 L 321,582 L 340,601 L 341,601 L 349,609 L 350,609 L 353,612 L 354,612 L 357,615 L 358,615 L 361,618 L 362,618 L 364,620 L 365,620 L 368,623 L 369,623 L 371,625 L 372,625 L 375,628 L 376,628 L 378,630 L 379,630 L 380,631 L 381,631 L 383,633 L 384,633 L 385,634 L 386,634 L 387,635 L 388,635 L 390,637 L 391,637 L 392,638 L 393,638 L 394,639 L 395,639 L 396,640 L 397,640 L 398,641 L 399,641 L 400,642 L 401,642 L 402,643 L 403,643 L 404,644 L 406,644 L 407,645 L 408,645 L 409,646 L 411,646 L 412,647 L 413,647 L 414,648 L 415,648 L 416,649 L 417,649 L 418,650 L 418,651 L 421,654 L 421,655 L 423,657 L 423,658 L 426,661 L 426,662 L 429,665 L 429,666 L 432,669 L 432,670 L 435,673 L 435,674 L 438,677 L 438,678 L 440,680 L 440,681 L 442,683 L 442,684 L 443,685 L 443,686 L 445,688 L 445,689 L 447,691 L 447,692 L 449,694 L 449,695 L 452,698 L 452,699 L 454,701 L 454,702 L 457,705 L 457,706 L 459,708 L 459,709 L 460,710 L 460,711 L 462,713 L 462,714 L 464,716 L 464,717 L 465,718 L 465,719 L 467,721 L 467,722 L 469,724 L 469,725 L 470,726 L 470,727 L 472,729 L 472,730 L 474,732 L 474,733 L 476,735 L 476,736 L 478,738 L 478,739 L 481,742 L 481,743 L 483,745 L 483,746 L 485,748 L 485,749 L 487,751 L 487,752 L 490,755 L 490,756 L 492,758 L 492,759 L 494,761 L 494,762 L 496,764 L 496,765 L 498,767 L 498,768 L 500,770 L 500,771 L 502,773 L 502,774 L 504,776 L 504,777 L 508,781 L 509,781 L 509,710 L 510,709 L 510,692 L 509,691 L 509,636 L 498,636 L 497,635 L 491,635 L 490,634 L 484,634 L 483,633 L 479,633 L 478,632 L 473,632 L 472,631 L 469,631 L 468,630 L 464,630 L 463,629 L 461,629 L 460,628 L 457,628 L 456,627 L 454,627 L 453,626 L 451,626 L 450,625 L 448,625 L 447,624 L 445,624 L 444,623 L 442,623 L 441,622 L 440,622 L 439,621 L 437,621 L 436,620 L 435,620 L 434,619 L 432,619 L 431,618 L 430,618 L 429,617 L 428,617 L 427,616 L 426,616 L 425,615 L 424,615 L 423,614 L 422,614 L 421,613 L 420,613 L 419,612 L 418,612 L 417,611 L 416,611 L 415,610 L 414,610 L 413,609 L 412,609 L 411,608 L 410,608 L 409,607 L 408,607 L 406,605 L 405,605 L 404,604 L 403,604 L 402,603 L 401,603 L 400,602 L 399,602 L 397,600 L 396,600 L 394,598 L 393,598 L 391,596 L 390,596 L 387,593 L 386,593 L 383,590 L 382,590 L 379,587 L 378,587 L 374,583 L 373,583 L 346,556 L 346,555 L 340,549 L 340,548 L 336,544 L 336,543 L 333,540 L 333,539 L 331,537 L 331,536 L 329,534 L 329,533 L 327,531 L 327,530 L 325,528 L 325,527 L 323,525 L 323,524 L 321,522 L 321,521 L 320,520 L 320,519 L 318,517 L 318,516 L 317,515 L 317,514 L 316,513 L 316,512 L 315,511 L 315,510 L 314,509 L 314,508 L 313,507 L 313,506 L 312,505 L 312,504 L 311,503 L 311,502 L 310,501 L 310,499 L 309,498 L 309,497 L 308,496 L 308,494 L 307,493 L 307,492 L 306,491 L 306,489 L 305,488 L 305,486 L 304,485 L 304,483 L 303,482 L 303,480 L 302,479 L 302,477 L 301,476 L 301,474 L 300,473 L 300,470 L 299,469 L 299,467 L 298,466 L 298,463 L 297,462 L 297,459 L 296,458 L 296,454 L 295,453 L 295,448 L 294,447 L 294,439 L 293,438 L 293,424 L 292,423 L 292,409 L 293,408 L 293,395 L 294,394 L 294,387 L 295,386 L 295,381 L 296,380 L 296,376 L 297,375 L 297,371 L 298,370 L 298,367 L 299,366 L 299,363 L 300,362 L 300,360 L 301,359 L 301,357 L 302,356 L 302,355 L 303,354 L 303,352 L 304,351 L 304,349 L 305,348 L 305,346 L 306,345 L 306,343 L 307,342 L 307,340 L 308,339 L 308,338 L 309,337 L 309,335 L 310,334 L 310,333 L 311,332 L 311,331 L 312,330 L 312,329 L 313,328 L 313,327 L 314,326 L 314,325 L 315,324 L 315,323 L 316,322 L 316,321 L 318,319 L 318,318 L 319,317 L 319,316 L 320,315 L 320,314 L 321,313 L 321,312 L 323,310 L 323,309 L 324,308 L 324,307 L 326,305 L 326,304 L 328,302 L 328,301 L 329,300 L 329,299 L 331,297 L 331,296 L 334,293 L 334,292 L 336,290 L 336,289 L 340,285 L 340,284 L 346,278 L 346,277 L 370,253 L 371,253 L 377,247 L 378,247 L 383,242 L 384,242 L 386,240 L 387,240 L 390,237 L 391,237 L 393,235 L 394,235 L 395,234 L 396,234 L 398,232 L 399,232 L 400,231 L 401,231 L 403,229 L 404,229 L 405,228 L 406,228 L 408,226 L 409,226 L 410,225 L 411,225 L 412,224 L 413,224 L 414,223 L 415,223 L 416,222 L 417,222 L 418,221 L 419,221 L 420,220 L 421,220 L 422,219 L 423,219 L 424,218 L 426,218 L 427,217 L 428,217 L 429,216 L 430,216 L 431,215 L 433,215 L 434,214 L 435,214 L 436,213 L 438,213 L 439,212 L 441,212 L 442,211 L 444,211 L 445,210 L 447,210 L 448,209 L 450,209 L 451,208 L 454,208 L 455,207 L 457,207 L 458,206 L 461,206 L 462,205 L 464,205 L 465,204 L 469,204 L 470,203 L 474,203 L 475,202 L 479,202 L 480,201 L 487,201 L 488,200 L 495,200 L 496,199 L 510,199 L 510,169 L 509,168 L 509,167 L 508,166 L 507,166 L 506,165 Z" fill="black"/>

</svg>